Coordinates
version=1
nRows=10
nColumns=40
inDegrees=yes

Units are S.I. units (second, meters, Newtons, ...)
Angles are in degrees.

endheader
time	pelvis_tilt	pelvis_list	pelvis_rotation	pelvis_tx	pelvis_ty	pelvis_tz	hip_flexion_r	hip_adduction_r	hip_rotation_r	knee_angle_r	knee_angle_r_beta	ankle_angle_r	subtalar_angle_r	mtp_angle_r	hip_flexion_l	hip_adduction_l	hip_rotation_l	knee_angle_l	knee_angle_l_beta	ankle_angle_l	subtalar_angle_l	mtp_angle_l	lumbar_extension	lumbar_bending	lumbar_rotation	arm_flex_r	arm_add_r	arm_rot_r	elbow_flex_r	pro_sup_r	wrist_flex_r	wrist_dev_r	arm_flex_l	arm_add_l	arm_rot_l	elbow_flex_l	pro_sup_l	wrist_flex_l	wrist_dev_l
      1.42000000	    -17.83316383	     -1.68157053	      2.75644153	      0.98316813	      1.03405873	     -0.35466866	     53.78121774	     -2.93663786	      0.69025951	     80.82464847	      1.41065623	      3.38836786	      0.00000000	      0.00000000	      0.77281760	      3.55835222	     -1.19280265	     19.11687563	      0.33365242	    -16.72141280	      0.00000000	      0.00000000	      7.15309546	      3.22450188	    -12.90907376	    -45.00208868	    -24.11407352	    -10.77949453	    101.05509854	     61.03459775	      0.00000000	      0.00000000	    -26.17406691	    -11.95895191	     -9.29615501	    129.02588899	     55.61354471	      0.00000000	      0.00000000
      1.43000000	    -18.15332257	     -0.96271706	      2.54478731	      0.98404108	      1.03976963	     -0.35545693	     54.42133852	     -3.68404432	      0.34617044	     75.24855823	      1.31333510	      3.59248771	      0.00000000	      0.00000000	     -0.75095238	      4.08837671	     -1.53222969	     18.84057549	      0.32883008	    -18.26729786	      0.00000000	      0.00000000	      7.62452665	      2.62323350	    -13.20077689	    -46.40678571	    -24.00839104	    -11.07298086	    101.89433040	     60.95846092	      0.00000000	      0.00000000	    -26.70911089	    -12.56567980	     -9.38993082	    130.51284732	     55.64027993	      0.00000000	      0.00000000
      1.44000000	    -18.30911084	     -2.21834486	      2.04918333	      0.98713506	      1.04619873	     -0.35516723	     53.87916013	     -2.30184780	     -1.34968112	     68.49674932	      1.19549380	      3.75233072	      0.00000000	      0.00000000	     -3.18361164	      2.43016939	     -1.57207291	     16.01073925	      0.27944012	    -26.39733340	      0.00000000	      0.00000000	      8.45486547	      4.34679731	    -13.41368101	    -48.07539703	    -23.69477530	    -12.52539411	    104.02532310	     60.60758308	      0.00000000	      0.00000000	    -27.18963729	    -12.42015513	     -8.51749370	    133.31809627	     55.72752065	      0.00000000	      0.00000000
      1.45000000	    -18.43586800	     -1.12366761	      1.78719122	      0.98861785	      1.05053487	     -0.35535900	     53.71844091	     -3.14315657	     -1.96625559	     62.46484116	      1.09021715	      3.77959868	      0.00000000	      0.00000000	     -4.58492637	      3.40783799	     -1.72427896	     16.12419840	      0.28142035	    -28.08769667	      0.00000000	      0.00000000	      8.96516337	      3.29582109	    -13.43604107	    -49.29149225	    -23.38703800	    -12.83934258	    105.03018935	     60.51171193	      0.00000000	      0.00000000	    -27.85956551	    -12.91383851	     -8.57576961	    134.55107575	     55.75478604	      0.00000000	      0.00000000
      1.46000000	    -18.61162655	     -0.15291376	      1.19544764	      0.98924858	      1.05345407	     -0.35522741	     53.76549232	     -3.59482313	     -2.81673279	     56.87302976	      0.99262162	      3.67525208	      0.00000000	      0.00000000	     -5.60538449	      4.35659516	     -1.30947567	     16.76069136	      0.29252925	    -29.92161448	      0.00000000	      0.00000000	      9.02874324	      2.48119612	    -13.21025827	    -50.44911684	    -23.41367409	    -13.25705553	    106.00545953	     60.44195899	      0.00000000	      0.00000000	    -28.84250167	    -13.42125064	     -8.61014824	    135.81143724	     55.78246813	      0.00000000	      0.00000000
      1.47000000	    -18.64408629	      0.71050276	      0.73757898	      0.99121526	      1.05614152	     -0.35460839	     52.70514925	     -3.64147494	     -3.63782434	     50.08384690	      0.87412803	      3.11227276	      0.00000000	      0.00000000	     -6.54905709	      5.26896752	     -0.14343725	     18.05076301	      0.31504525	    -32.21015812	      0.00000000	      0.00000000	      9.65895009	      1.60366843	    -12.94773142	    -51.18787038	    -23.04279839	    -13.66722767	    107.51155103	     60.37172500	      0.00000000	      0.00000000	    -29.66528169	    -13.69766761	     -8.49837460	    137.41507782	     55.82020827	      0.00000000	      0.00000000
      1.48000000	    -18.06487441	     -1.13066125	      1.12912896	      0.99065572	      1.06058154	     -0.35515845	     49.73703350	     -1.58244592	     -4.92456176	     40.95223643	      0.71475136	     -0.08654751	      0.00000000	      0.00000000	     -7.35349401	      3.41539390	      3.59632180	     20.59950850	      0.35952925	    -33.46294347	      0.00000000	      0.00000000	      8.77427479	      4.02588732	    -13.55505020	    -51.26699276	    -22.34822842	    -14.77048083	    108.45336256	     59.93156162	      0.00000000	      0.00000000	    -28.69557689	    -13.78839207	     -7.06209748	    137.36302167	     55.72965177	      0.00000000	      0.00000000
      1.49000000	    -17.85444127	      0.09012865	      0.17609351	      0.99232399	      1.06019196	     -0.35417799	     49.26483836	     -1.67567354	     -5.86186119	     37.03367240	      0.64635952	      0.10004244	      0.00000000	      0.00000000	     -8.23564486	      5.05994500	      4.75171383	     22.85208438	      0.39884411	    -33.44844475	      0.00000000	      0.00000000	      8.67251732	      2.92428493	    -12.69642659	    -51.85842053	    -22.41493119	    -15.01788833	    109.34237934	     59.87330502	      0.00000000	      0.00000000	    -29.88852750	    -14.17761823	     -6.94715880	    137.72889144	     55.70687275	      0.00000000	      0.00000000
      1.50000000	    -17.23225630	     -0.07071823	      1.11545289	      0.99002409	      1.06172416	     -0.35491733	     46.06581141	     -0.71737324	     -3.31288537	     28.49469803	      0.49732630	     -0.85944937	      0.00000000	      0.00000000	     -7.59540392	      5.17822787	      8.00521241	     28.78108903	      0.50232477	    -31.58913791	      0.00000000	      0.00000000	      7.61393415	      3.26792556	    -13.37159358	    -51.32473214	    -21.41947398	    -15.26891675	    110.69185152	     59.69619865	      0.00000000	      0.00000000	    -28.96877176	    -14.92108043	     -6.11191005	    137.71186987	     55.55365379	      0.00000000	      0.00000000
      1.51000000	    -16.96040738	      0.52106655	     -0.13312690	      0.99112534	      1.05997522	     -0.35364659	     45.48362713	     -0.02106595	     -3.89912987	     25.85402359	      0.45123784	     -0.54294612	      0.00000000	      0.00000000	     -7.89015688	      6.36775960	      8.78930040	     32.03515468	      0.55911893	    -31.49812437	      0.00000000	      0.00000000	      7.18300282	      2.83777549	    -12.17451620	    -51.28849207	    -21.72279341	    -15.47857799	    110.99499692	     59.65813472	      0.00000000	      0.00000000	    -30.06497284	    -14.79663471	     -5.72983582	    137.05756771	     55.48185816	      0.00000000	      0.00000000
